<svg xmlns="http://www.w3.org/2000/svg" xmlns:xlink="http://www.w3.org/1999/xlink" width="48" height="48"><linearGradient id="e" x1="-2247" x2="-2225.6" y1="365.76" y2="324.21" gradientTransform="matrix(1 0 0 -1 2229.2 311.64)" gradientUnits="userSpaceOnUse"><stop offset="0" stop-color="#5b779e"/><stop offset=".399" stop-color="#2d3b50"/><stop offset="1" stop-color="#0c0e14"/></linearGradient><linearGradient id="a"><stop offset="0" stop-opacity="0"/><stop offset="1" stop-opacity=".62"/></linearGradient><linearGradient xlink:href="#a" id="f" x1="-2269.2" x2="-2262.7" y1="408.9" y2="394.7" gradientTransform="matrix(1 0 0 -1 2259.2 363.86)" gradientUnits="userSpaceOnUse"/><linearGradient id="b"><stop offset="0" stop-color="#e6f1fd"/><stop offset="0" stop-color="#bdd9f9"/><stop offset=".065" stop-color="#bdd9f9"/><stop offset="1" stop-color="#1c3556" stop-opacity=".1"/></linearGradient><radialGradient xlink:href="#b" id="g" cx="-2580.2" cy="505.22" r="7.5" gradientTransform="matrix(3.7445 -.7613 -.396 -1.9477 9848.5 -1026.2)" gradientUnits="userSpaceOnUse"/><linearGradient xlink:href="#a" id="h" x1="-2286.3" x2="-2275" y1="410.38" y2="386.13" gradientTransform="matrix(1 0 0 -1 2259.2 363.86)" gradientUnits="userSpaceOnUse"/><radialGradient xlink:href="#b" id="i" cx="-2579.1" cy="509.85" r="7.5" gradientTransform="matrix(3.7445 -.7613 -.396 -1.9477 9841.2 -1010.4)" gradientUnits="userSpaceOnUse"/><linearGradient id="j" x1="-2191.4" x2="-2185.1" y1="412.55" y2="406.98" gradientTransform="matrix(1 0 0 -1 2229.4 417.58)" gradientUnits="userSpaceOnUse"><stop offset="0" stop-color="#fdec97"/><stop offset=".353" stop-color="#fdec97"/><stop offset=".513" stop-color="#fdec97"/><stop offset=".628" stop-color="#db990f"/><stop offset="1" stop-color="#db990f"/></linearGradient><linearGradient id="c"><stop offset="0" stop-color="#ffdc76"/><stop offset=".327" stop-color="#e4903b"/><stop offset=".451" stop-color="#ca4400"/><stop offset=".58" stop-color="#fdec97"/><stop offset=".704" stop-color="#db990f"/><stop offset="1" stop-color="#db990f"/></linearGradient><linearGradient xlink:href="#c" id="k" x1="-2190.9" x2="-2184.3" y1="374.29" y2="381.04" gradientTransform="matrix(1 0 0 -1 2229.4 417.58)" gradientUnits="userSpaceOnUse"/><linearGradient xlink:href="#c" id="l" x1="-2221.4" x2="-2225.8" y1="375.5" y2="380.36" gradientTransform="matrix(1 0 0 -1 2229.4 417.58)" gradientUnits="userSpaceOnUse"/><linearGradient id="m" x1="-2225.7" x2="-2219.7" y1="406.59" y2="412.52" gradientTransform="matrix(1 0 0 -1 2229.4 417.58)" gradientUnits="userSpaceOnUse"><stop offset="0" stop-color="#ca4400"/><stop offset=".353" stop-color="#ca4400"/><stop offset=".513" stop-color="#fdec97"/><stop offset=".628" stop-color="#db990f"/><stop offset="1" stop-color="#db990f"/></linearGradient><linearGradient id="n" x1="-2217.4" x2="-2211.9" y1="406.21" y2="381.96" gradientTransform="matrix(1 0 0 -1 2229.4 417.58)" gradientUnits="userSpaceOnUse"><stop offset="0" stop-color="#da940f"/><stop offset=".235" stop-color="#efd11a"/><stop offset=".75" stop-color="#efd11a"/><stop offset=".908" stop-color="#efd11a"/><stop offset="1" stop-color="#d3900e"/></linearGradient><linearGradient id="o" x1="-2214" x2="-2209.2" y1="406.28" y2="383.42" gradientTransform="matrix(1 0 0 -1 2229.4 417.58)" gradientUnits="userSpaceOnUse"><stop offset="0" stop-color="#c63000"/><stop offset=".491" stop-color="#db9000"/><stop offset=".8" stop-color="#db9000"/><stop offset="1" stop-color="#c43b00"/></linearGradient><linearGradient id="p" x1="-2204.5" x2="-2208" y1="395.47" y2="380.78" gradientTransform="matrix(1 0 0 -1 2229.4 417.58)" gradientUnits="userSpaceOnUse"><stop offset="0" stop-color="#ad2f00"/><stop offset="1" stop-color="#cb7500"/></linearGradient><linearGradient id="q" x1="-2204.5" x2="-2209.6" y1="402.45" y2="386.98" gradientTransform="matrix(1 0 0 -1 2229.4 417.58)" gradientUnits="userSpaceOnUse"><stop offset="0" stop-color="#ecd500"/><stop offset=".869" stop-color="#ecd500"/><stop offset="1" stop-color="#ffef57"/></linearGradient><linearGradient id="d"><stop offset="0" stop-color="#ffd511"/><stop offset="1" stop-color="#fdf8dc"/></linearGradient><linearGradient xlink:href="#d" id="r" x1="-2215.5" x2="-2214.2" y1="406.48" y2="403.82" gradientTransform="matrix(1 0 0 -1 2229.4 417.58)" gradientUnits="userSpaceOnUse"/><linearGradient id="s" x1="-2206.4" x2="-2200.6" y1="402.91" y2="382.79" gradientTransform="matrix(1 0 0 -1 2229.4 417.58)" gradientUnits="userSpaceOnUse"><stop offset="0" stop-color="#bd3300"/><stop offset=".188" stop-color="#bd3300"/><stop offset=".411" stop-color="#cb8500"/><stop offset="1" stop-color="#c26f00"/></linearGradient><linearGradient id="t" x1="-2206.6" x2="-2202.7" y1="395.11" y2="381.73" gradientTransform="matrix(1 0 0 -1 2229.4 417.58)" gradientUnits="userSpaceOnUse"><stop offset="0" stop-color="#ffd303"/><stop offset=".902" stop-color="#ffd303"/><stop offset="1" stop-color="#d27e00"/></linearGradient><linearGradient id="u" x1="-2193.9" x2="-2198.3" y1="406.83" y2="380.5" gradientTransform="matrix(1 0 0 -1 2229.4 417.58)" gradientUnits="userSpaceOnUse"><stop offset="0" stop-color="#a51f00"/><stop offset=".288" stop-color="#c67200"/><stop offset=".644" stop-color="#c67200"/><stop offset="1" stop-color="#c25500"/></linearGradient><linearGradient id="v" x1="-2197.3" x2="-2201.7" y1="406.26" y2="382.99" gradientTransform="matrix(1 0 0 -1 2229.4 417.58)" gradientUnits="userSpaceOnUse"><stop offset="0" stop-color="#cd7c00"/><stop offset=".314" stop-color="#eed700"/><stop offset="1" stop-color="#eed700"/></linearGradient><linearGradient xlink:href="#d" id="w" x1="-2195.8" x2="-2194.7" y1="406.48" y2="404.2" gradientTransform="matrix(1 0 0 -1 2229.4 417.58)" gradientUnits="userSpaceOnUse"/><linearGradient id="x" x1="-2230.5" x2="-2178.7" y1="383.14" y2="404.68" gradientTransform="matrix(1 0 0 -1 2229.4 417.58)" gradientUnits="userSpaceOnUse"><stop offset="0" stop-color="#51290e"/><stop offset=".346" stop-color="#d08e29"/><stop offset=".417" stop-color="#e1d02d"/><stop offset=".498" stop-color="#f6e57f"/><stop offset=".537" stop-color="#f6e57f"/><stop offset=".605" stop-color="#e1d02d"/><stop offset=".687" stop-color="#d08e29"/><stop offset="1" stop-color="#452a15"/></linearGradient><linearGradient id="y" x1="-2192.4" x2="-2219.2" y1="375.16" y2="413.07" gradientTransform="matrix(1 0 0 -1 2228.8 416.57)" gradientUnits="userSpaceOnUse"><stop offset="0" stop-color="#ffe12b"/><stop offset=".136" stop-color="#fff7c7" stop-opacity="0"/><stop offset=".819" stop-color="#fff7c7" stop-opacity="0"/><stop offset="1" stop-color="#ffe12b"/></linearGradient><path fill="url(#e)" d="M14.715-29.794c.003 11.346-8.94 20.547-19.976 20.55-11.036.004-19.986-9.192-19.989-20.538v-.013c-.003-11.347 8.94-20.548 19.976-20.551s19.985 9.191 19.989 20.538z" transform="translate(29.75 53.719)"/><path fill="url(#f)" d="m-3.312-50.062-8 .5a1.056 1.056 0 0 0-.5.156l-7 4.5a1.058 1.058 0 0 0-.031 1.781c.923.622 1.837 1.338 2.094 2 .553 1.466 1.181 3.614 1.719 5.469a74.9 74.9 0 0 0 .75 2.469c.113.342.206.648.312.906s.173.454.438.75c.04.034.081.065.125.094.473.385.966.596 1.562.781s1.284.331 1.938.438 1.281.146 1.844.156.96.133 1.625-.281c.032-.019.064-.04.094-.062.285-.227.314-.379.375-.5s.113-.222.156-.344c.087-.244.166-.518.25-.844a32.922 32.922 0 0 0 .844-4.781c.072-.708.158-1.177 0-1.812-.008-.033.01-.06 0-.094h-.033c-.16-.773-.57-1.892-1.281-3.156a9.806 9.806 0 0 0-2.5-2.906c.036-.038.117-.106.312-.188l3.907.03c.117-.001.233-.023.344-.062.092-.03.189.034.656-.188.234-.11.52-.364.656-.625s.193-.482.219-.719l.25-2.281a1.06 1.06 0 0 0-1.125-1.187z" transform="translate(29.75 53.719)"/><path fill="url(#g)" d="m-3.25-49-.25 2.278c-.07.648-.343.49-.823.646l-4.116-.015c-1.214.39-1.347 1.036-1.265 1.588 2.306 1.282 3.746 4.921 3.955 6.002.296 1.042-.845 6.927-1.25 7.25-.683.425-4.73-.17-5.75-1-.548-.615-1.837-6.167-3-9.25-.428-1.103-1.576-1.878-2.5-2.5l7-4.5z" transform="translate(29.75 53.719)"/><path fill="url(#h)" d="M-23.219-37.406a.93.93 0 0 0-.812.688l-2.406 8.219a.928.928 0 0 0 .375 1.031c.923.621 1.878 1.346 2.156 2.062a.886.886 0 0 0 .094.156c.008.027.019.039.031.094.043.186.093.509.156.875.127.732.302 1.725.531 2.75s.511 2.084.938 3 .998 1.764 2 2.094c-.243-.08-.041.01.094.094s.312.199.531.344c.438.29.998.654 1.562 1.031s1.131.777 1.594 1.062c.231.143.441.248.625.344.092.048.175.085.281.125s.168.139.594.062c.49-.088.641-.361.719-.5s.095-.244.125-.344c.059-.199.12-.398.156-.625.073-.455.126-1.016.188-1.562s.125-1.099.188-1.469c.026-.152.046-.219.062-.281.069-.059.167-.051.219-.125.204-.287.227-.585.219-.812-.017-.455-.162-.803-.344-1.188-.364-.771-.96-1.658-1.625-2.594-1.283-1.807-2.75-3.586-3.406-4.312-.055-.18-.086-.365-.156-.562-.087-.246-.185-.514-.25-.75 1.383.59 2.816 1.122 4.406 1.312a.916.916 0 0 0 .281-.031 5.827 5.827 0 0 0 1.438-.438c.27-.122.556-.247.812-.469s.541-.578.594-1.062a.93.93 0 0 0-.156-.625c-1.777-2.656-4.331-3.335-7-4.312L-19.938-36a.928.928 0 0 0-.344-.25l-2.469-1.062a.912.912 0 0 0-.468-.094z" transform="translate(29.75 53.719)"/><path fill="url(#i)" d="M-18.975-33.338c2.82 1.052 5.133 1.588 6.779 4.048-.07.647-1.486 1.083-2.061 1.177-1.708-.205-3.28-.818-4.823-1.518-1.526-.329-.198 2.363-.116 2.915 1.09 1.186 6.496 7.814 5.012 7.994-.364.045-.521 4.395-.86 4.455s-4.462-2.938-4.832-3.059c-2.377-.783-2.767-8.199-3.155-8.421-.427-1.103-1.576-1.878-2.5-2.5l2.404-8.212 2.482 1.061z" transform="translate(29.75 53.719)"/><g fill-opacity=".32"><path d="m44.333 13.145-.031-6.938a1.235 1.235 0 0 0-1.25-1.25l-6.344-.062a1.24 1.24 0 0 0-.906 2.094l6.375 7c.345.381.89.509 1.37.322a1.24 1.24 0 0 0 .786-1.166z"/><path d="m43.916 13.146-.031-6.938a.823.823 0 0 0-.812-.812l-6.344-.062a.828.828 0 0 0-.625 1.375l6.375 7a.827.827 0 0 0 1.437-.563z"/><path d="m43.646 13.145-.031-6.938a.557.557 0 0 0-.161-.401.56.56 0 0 0-.401-.162l-6.344-.062a.555.555 0 0 0-.407.937l6.375 7a.554.554 0 0 0 .969-.374z"/></g><path fill-opacity=".33" d="m43.34 13.15-.031-6.938a.26.26 0 0 0-.031-.094.27.27 0 0 0-.062-.094.302.302 0 0 0-.031-.031.255.255 0 0 0-.125-.031.302.302 0 0 0-.031-.031l-6.344-.062a.257.257 0 0 0-.062.031.267.267 0 0 0-.094.031.28.28 0 0 0-.062.062.281.281 0 0 0-.031.094.26.26 0 0 0 0 .156.28.28 0 0 0 .062.094l6.375 7a.27.27 0 0 0 .219.062.266.266 0 0 0 .125-.031c.012-.01.021-.02.031-.031a.257.257 0 0 0 .062-.094.282.282 0 0 0 .03-.093z"/><path fill="url(#j)" d="m37.086 6.255 5.928-.026-.057 6.369z"/><g fill-opacity=".32"><path d="m37.125 42.594 6.938-.031a1.236 1.236 0 0 0 1.25-1.25l.062-6.344a1.238 1.238 0 0 0-2.094-.906l-7 6.375a1.238 1.238 0 0 0 .844 2.156z"/><path d="m37.146 42.178 6.938-.031a.824.824 0 0 0 .812-.812l.062-6.344a.827.827 0 0 0-1.375-.625l-7 6.375a.826.826 0 0 0 .563 1.437z"/><path d="m37.125 41.907 6.938-.031a.557.557 0 0 0 .562-.562l.062-6.344a.551.551 0 0 0-.937-.407l-7 6.375a.554.554 0 1 0 .375.969z"/></g><path fill-opacity=".33" d="m37.097 41.606 6.938-.031a.267.267 0 0 0 .094-.031.27.27 0 0 0 .094-.062.302.302 0 0 0 .031-.031.257.257 0 0 0 .031-.125.302.302 0 0 0 .031-.031l.062-6.344a.3.3 0 0 0-.031-.062.289.289 0 0 0-.031-.094.28.28 0 0 0-.062-.062.281.281 0 0 0-.094-.031.26.26 0 0 0-.156 0 .27.27 0 0 0-.094.062l-7 6.375a.27.27 0 0 0-.062.219c0 .044.011.087.031.125.009.012.021.021.031.031a.25.25 0 0 0 .094.062.26.26 0 0 0 .093.03z"/><path fill="url(#k)" d="m43.996 34.143.021 7.094H37.21z"/><g fill-opacity=".32"><path d="m2.625 34.344.031 6.938a1.238 1.238 0 0 0 1.25 1.25l6.344.062c.498.005.949-.289 1.147-.746a1.24 1.24 0 0 0-.241-1.348l-6.375-7a1.24 1.24 0 0 0-2.156.844z"/><path d="m3.062 34.365.031 6.938a.824.824 0 0 0 .813.812l6.344.062a.824.824 0 0 0 .625-1.375l-6.375-7a.828.828 0 0 0-.913-.215.828.828 0 0 0-.525.778z"/><path d="m3.313 34.344.031 6.938a.549.549 0 0 0 .162.4c.106.107.25.165.401.162l6.344.062a.551.551 0 0 0 .406-.937l-6.375-7a.554.554 0 0 0-.969.375z"/></g><path fill-opacity=".33" d="m3.589 34.321.031 6.938a.267.267 0 0 0 .031.094.28.28 0 0 0 .062.094c.009.012.02.021.031.031a.257.257 0 0 0 .125.031c.009.012.02.021.031.031l6.344.062a.277.277 0 0 0 .062-.031.289.289 0 0 0 .094-.031.28.28 0 0 0 .062-.062.281.281 0 0 0 .031-.094.26.26 0 0 0 0-.156.29.29 0 0 0-.062-.094l-6.375-7a.265.265 0 0 0-.219-.062.269.269 0 0 0-.125.031.227.227 0 0 0-.031.031.266.266 0 0 0-.062.094.26.26 0 0 0-.03.093z"/><path fill="url(#l)" d="M10.408 41.214H4v-6.982z"/><g fill-opacity=".32"><path d="M11.938 4.969 5 5a1.238 1.238 0 0 0-1.25 1.25l-.062 6.344a1.238 1.238 0 0 0 2.094.906l7-6.375a1.237 1.237 0 0 0-.844-2.156z"/><path d="M11.938 5.407 5 5.438a.824.824 0 0 0-.812.812l-.062 6.344a.827.827 0 0 0 1.374.625l7-6.375a.826.826 0 0 0-.562-1.437z"/><path d="M11.938 5.657 5 5.688a.553.553 0 0 0-.562.562l-.062 6.344a.553.553 0 0 0 .937.406l7-6.375a.554.554 0 0 0-.375-.968z"/></g><path fill-opacity=".33" d="M11.938 5.938 5 5.969A.26.26 0 0 0 4.906 6a.268.268 0 0 0-.094.063.227.227 0 0 0-.031.031.275.275 0 0 0-.031.125.227.227 0 0 0-.031.031l-.062 6.344a.24.24 0 0 0 .031.062.26.26 0 0 0 .031.094.28.28 0 0 0 .062.062.26.26 0 0 0 .094.031.26.26 0 0 0 .156 0 .27.27 0 0 0 .094-.062l7-6.375a.264.264 0 0 0 .062-.219.275.275 0 0 0-.031-.125.227.227 0 0 0-.031-.031.261.261 0 0 0-.094-.062.262.262 0 0 0-.093-.031Z"/><path fill="url(#m)" d="m4.95 12.598.037-6.333 6.946-.031z"/><g fill-opacity=".29"><path d="M10.969 10.813c-.116.012-.221.074-.288.17s-.087.217-.056.33l.688 2.406 4.75 21.125-.438 2.312a.397.397 0 0 0 .375.468h6.906a.4.4 0 0 0 .375-.5l-.438-2.219 1.188-4.531 1.469 4.595-.656 2.125a.398.398 0 0 0 .375.531l7.781.032a.397.397 0 0 0 .375-.531l-.906-2.438 3.562-20.469 1.344-2.844a.398.398 0 0 0-.343-.563H30.25a.398.398 0 0 0-.406.469l.406 2.312-2.344 13.219-3.656-14.124a.398.398 0 0 0-.75 0l-3.531 14.031-2.938-13.125.375-2.312a.398.398 0 0 0-.125-.344.394.394 0 0 0-.281-.125h-6a.16.16 0 0 0-.031 0z"/><path d="M10.844 10.5a.725.725 0 0 0-.531.906L11 13.781h-.031l4.75 21.062-.438 2.25a.729.729 0 0 0 .719.844h6.906a.73.73 0 0 0 .719-.875l-.438-2.125.875-3.344 1.094 3.375-.625 2.031c-.065.219-.023.455.111.64s.348.294.576.298l7.782.032a.73.73 0 0 0 .688-.969l-.875-2.375 3.531-20.25 1.344-2.844a.731.731 0 0 0-.656-1.031H30.25a.729.729 0 0 0-.719.843l.375 2.25-2.031 11.626-3.281-12.625a.73.73 0 0 0-1.438 0l-3.187 12.625L17.375 13.5l.344-2.156a.727.727 0 0 0-.719-.843h-6a.74.74 0 0 0-.156-.001z"/><path d="M10.781 10.188A1.038 1.038 0 0 0 10 11.501l.688 2.344v.062l4.719 20.875-.438 2.25c-.053.304.031.615.23.852.199.234.493.369.801.367h6.906a1.04 1.04 0 0 0 1.031-1.25l-.437-2.126.594-2.188.719 2.281-.594 1.938a1.04 1.04 0 0 0 1 1.344l7.781.031a1.04 1.04 0 0 0 .969-1.375l-.844-2.281 3.531-20.188 1.312-2.781a1.039 1.039 0 0 0-.937-1.469H30.25a1.037 1.037 0 0 0-1.031 1.219l.375 2.188-1.812 10.188-2.906-11.25a1.039 1.039 0 0 0-2 0L20 23.969l-2.312-10.406.344-2.188A1.036 1.036 0 0 0 17 10.188h-6a1.002 1.002 0 0 0-.219 0z"/><path d="M10.844 9.813a1.414 1.414 0 0 0-1.219 1.781l.688 2.344V14l4.719 20.844-.406 2.094a1.413 1.413 0 0 0 1.375 1.687h6.906c.459.002.89-.221 1.156-.594.266.373.697.596 1.156.594l7.781.032c.461-.004.891-.232 1.151-.612s.321-.862.161-1.294l-.781-2.156 3.469-20 1.312-2.75c.213-.44.184-.958-.076-1.372a1.418 1.418 0 0 0-1.205-.66H30.25a1.414 1.414 0 0 0-1.406 1.656l.375 2.125-1.5 8.406-2.469-9.562a1.413 1.413 0 0 0-2.75 0l-2.469 9.844-1.969-8.75.344-2.094A1.413 1.413 0 0 0 17 9.813h-6a1.353 1.353 0 0 0-.156 0zm13.281 24.25.312.938-.344 1.062-.219-1.062z"/><path d="m10.992 11.219.711 2.398 4.766 21.203L16 37.227h6.914l-.477-2.32 1.57-5.953 1.891 6.031-.672 2.242 7.789.016-.957-2.543 3.58-20.532 1.392-2.953-6.78.004.393 2.386-2.646 15.083-4.121-15.906-3.938 15.625-3.312-14.875.374-2.313z"/></g><path fill="url(#n)" d="m11 11.219 3.379 2.496 4.523 21.035-2.906 2.477.473-2.414-4.75-21.188z"/><path fill="#792100" d="m18.906 34.75-2.91 2.477 6.926-.008-2.672-2.453z"/><path fill="url(#o)" d="m16.984 11.242-2.602 2.48 4.523 21.027 1.332.012-.268-6.542-3.219-14.594z"/><path fill="url(#p)" d="m22.918 37.227-2.664-2.457 3.738-14.363.016 8.539-1.57 5.961z"/><path fill="url(#q)" d="M23.875 12.75 24 20.344l-3.754 14.434L20 28.281Z"/><path fill="url(#r)" d="m10.992 11.219 3.391 2.5L17 11.227z"/><path fill="url(#s)" d="m23.867 12.766.125 7.633 3.441 14.381 2.146.011z"/><path fill="url(#t)" d="m23.992 20.407.016 8.523 1.896 6.051-.672 2.236 2.221-2.428z"/><path fill="#792100" d="m29.57 34.778-2.109.008-2.244 2.441 7.793.014z"/><path fill="url(#u)" d="m35.631 14.135 1.393-2.899-3.752 2.122-3.717 21.426 3.463 2.464-.959-2.546z"/><path fill="url(#v)" d="m30.643 13.594-.404-2.352 3.037 2.102-3.721 21.418-1.561-6.078z"/><path fill="url(#w)" d="m30.235 11.235 3.022 2.132 3.783-2.145z"/><path fill-opacity=".26" d="M24 1.157c-12.593 0-22.812 10.233-22.812 22.844S11.407 46.844 24 46.844c12.594 0 22.812-10.233 22.812-22.844S36.594 1.157 24 1.157zm-.094 3.937c10.329 0 18.688 8.379 18.688 18.75s-8.359 18.781-18.688 18.781-18.719-8.41-18.719-18.781c.001-10.371 8.39-18.75 18.719-18.75z"/><path fill-opacity=".28" d="M24 .813C11.219.813.844 11.203.844 24.001.844 36.798 11.219 47.189 24 47.189s23.156-10.391 23.156-23.188C47.156 11.203 36.781.813 24 .813zm-.094 4.625c10.141 0 18.344 8.222 18.344 18.406s-8.203 18.438-18.344 18.438c-10.14 0-18.375-8.254-18.375-18.438 0-10.183 8.234-18.406 18.375-18.406z"/><path fill-opacity=".41" d="M24 .25C10.915.25.281 10.899.281 24S10.915 47.75 24 47.75c13.086 0 23.719-10.649 23.719-23.75S37.086.25 24 .25zM23.906 6c9.837 0 17.781 7.962 17.781 17.844S33.74 41.719 23.906 41.719 6.094 33.723 6.094 23.844 14.069 6 23.906 6z"/><path fill="url(#x)" d="M24 1.5C11.59 1.5 1.531 11.573 1.531 24 1.531 36.428 11.59 46.5 24 46.5S46.469 36.428 46.469 24C46.469 11.573 36.41 1.5 24 1.5zm-.094 3.25c10.513 0 19.031 8.541 19.031 19.094s-8.519 19.125-19.031 19.125S4.844 34.397 4.844 23.844 13.394 4.75 23.906 4.75z"/><path fill="url(#y)" d="M23.433 1.647c-11.782 0-21.312 9.543-21.312 21.344s9.531 21.344 21.312 21.344 21.313-9.543 21.313-21.344S35.215 1.647 23.433 1.647zm-.094.937c11.141 0 20.188 9.072 20.188 20.25s-9.044 20.281-20.188 20.281-20.218-9.1-20.218-20.281 9.077-20.25 20.218-20.25z"/></svg>