<svg xmlns="http://www.w3.org/2000/svg" width="306" height="185"><g style="display:inline"><path d="m264.513 77.9778-4.917 19.529c6.965-13.793 18.027-24.172 30.729-33.323-9.287 10.789-17.754 21.579-22.944 32.368 8.741-12.292 20.486-19.12 33.733-23.627-17.618 15.706-31.6023 32.5592-42.2553 49.4942l-8.467-3.687c1.501-13.521 6.6093-27.3692 14.1213-40.7542z" style="fill:#abcd03" transform="translate(-92 -63.9998)"/><path d="m241.9011 115.1415 16.116 6.686c0 4.098-.3331 16.597 2.2294 20.284 26.8029 34.519 22.2935 103.7133-5.4295 105.4883-42.2166 0-58.317-28.679-58.317-55.038 0-24.037 28.816-40.016 46.025-54.219 4.37-3.824 3.6111-12.2753-.6239-23.2013z" style="fill:#fffcdb" transform="translate(-92 -63.9998)"/><path d="m258.022 121.587 5.808 2.9628c-.546 3.823.273 12.292 4.096 14.476 16.936 10.516 32.914 21.988 39.197 33.46 22.398 40.426-15.706 77.846-48.62 74.295 17.891-13.248 23.081-40.425 16.389-70.062-2.731-11.609-6.966-22.125-14.478-34.007-3.2542-5.8325-2.118-13.0659-2.392-21.1249z" style="fill:#7d4698" transform="translate(-92 -63.9998)"/><g style="display:inline"><path d="m163.226 56.589 12.018 1.639c-3.551 11.745 6.966 19.939 10.38 21.852 7.648 4.234 15.023 8.604 20.896 13.93 11.063 10.106 17.345 24.31 17.345 39.333 0 14.886-6.829 29.226-18.301 38.786-10.789 9.014-25.675 12.838-40.152 12.838-9.014 0-17.072-.409-25.812-3.278-19.939-6.692-34.826-23.763-36.055-44.25-1.093-15.979 2.458-28.134 14.887-40.835 6.418-6.692 19.393-14.34 28.271-20.486 4.371-3.005 9.014-11.473.136-27.451l1.776-1.366 13.1566 8.812-11.1076-4.578c.956 1.366 3.551 7.512 4.098 9.287 1.229 5.053.683 9.971-.41 12.155-5.599 10.107-15.159 12.838-22.124 18.574-12.292 10.106-25.676 18.164-24.174 45.888.683 13.657 11.336 30.319 27.314 38.104 9.014 4.371 19.394 6.146 29.91 6.692 9.423.41 27.451-5.19 37.284-13.384 10.516-8.74 16.389-21.988 16.389-35.508 0-13.658-5.463-26.632-15.706-35.783-5.873-5.326-15.569-11.745-21.578-15.16-6.009-3.414-13.521-12.974-11.063-22.124z"/><path d="M159.539 76.802c-1.229 6.283-2.595 17.618-8.058 21.852-2.322 1.638-4.644 3.278-7.102 4.916-9.833 6.693-19.667 12.974-24.173 29.09-.956 3.415-.136 7.102.684 10.516 2.458 9.833 9.423 20.486 14.886 26.769 0 .273 1.093.956 1.093 1.229 4.507 5.327 5.873 6.829 22.944 10.652l-.41 1.913c-10.243-2.731-18.71-5.189-24.037-11.336 0-.136-.956-1.093-.956-1.093-5.736-6.556-12.702-17.481-15.296-27.724-.956-4.098-1.775-7.238-.683-11.473 4.643-16.661 14.75-23.217 24.993-30.182 2.322-1.502 5.053-2.869 7.238-4.644 4.233-3.14 6.554-12.701 8.877-20.485z"/><path d="M163.9063 102.7497c.137 7.102-.5563 10.6648 1.2187 15.7188 1.092 3.004 4.782 7.1015 5.875 11.0625 1.502 5.327 3.138 11.199 3 14.75 0 4.098-.2562 11.7425-2.0313 19.9375-1.3536 6.771-4.4732 12.5815-9.7187 15.875-5.3733-1.1065-11.6822-2.9952-15.4063-6.1875-7.238-6.282-13.6487-16.7865-14.4687-25.9375-.682-7.511 6.2728-18.5885 15.9688-24.1875 8.194-4.78 10.1-10.2278 11.875-18.9688-2.458 7.648-4.7665 14.0593-12.6875 18.1563-11.472 6.009-17.3585 16.0962-16.8125 25.6562.819 12.291 5.7415 20.6195 15.4375 27.3125 4.097 2.868 11.7512 5.8988 16.5312 6.7188v-.625c3.625-.6789 8.3182-6.6327 10.6563-14.6875 2.049-7.238 2.8567-16.502 2.7187-22.375-.137-3.414-1.643-10.808-4.375-17.5-1.502-3.687-3.8095-7.3738-5.3125-9.9688-1.637-2.597-1.6487-8.195-2.4688-14.75z"/><path d="M163.0938 129.531c.136 4.78 2.056 10.9045 2.875 17.1875.684 4.644.387 9.3082.25 13.4062-.135 4.7433-1.7152 13.2422-3.875 17.375-2.0368-.934-2.833-1.9992-4.1563-3.7187-1.638-2.322-2.7508-4.644-3.8438-7.375-.819-2.049-1.7765-4.394-2.1875-7.125-.546-4.097-.393-10.5065 4.25-17.0625 3.551-5.19 4.3648-5.5848 5.5938-11.5938-1.64 5.326-2.8625 5.869-6.6875 10.375-4.233 4.917-4.9375 12.1593-4.9375 18.0313 0 2.459.9805 5.1872 1.9375 7.7812 1.092 2.732 2.0293 5.452 3.5313 7.5 2.258 3.3209 5.148 5.2093 6.5625 5.5625.009.002.022-.002.0312 0 .0303.007.0649.0255.0937.0312v-.1562c2.6498-2.9544 4.2444-5.8894 4.7812-8.8438.683-3.551.84-7.1097 1.25-11.3437.409-3.551.1123-8.334-.8437-13.25-1.365-6.146-3.669-12.4123-4.625-16.7813z"/><path d="M163.499 71.066c.137 7.101.683 20.35 2.595 25.539.546 1.775 5.599 9.56 9.149 18.983 2.459 6.556 3.005 12.565 3.415 14.34 1.639 7.785-.41 20.896-3.142 33.324-1.365 6.692-6.009 15.023-11.335 18.301l-1.092 1.912c3.005-.137 10.379-7.375 12.974-16.389 4.371-15.296 6.146-22.398 4.098-39.333-.273-1.64-.956-7.238-3.551-13.248-3.824-9.151-9.287-17.891-9.969-19.667-1.23-2.867-2.869-15.295-3.142-23.762z"/><path d="M166.0615 61.3533c-.4051 7.298-.5135 9.9857.8515 15.3117 1.502 5.873 9.151 14.34 12.292 24.037 6.009 18.574 4.507 42.884.136 61.867-1.638 6.691-9.424 16.389-17.208 19.529l5.736 1.366c3.141-.137 11.198-7.648 14.34-16.252 5.052-13.521 6.009-29.636 3.96-46.571-.137-1.639-2.869-16.252-5.463-22.398-3.688-9.15-10.244-17.345-10.926-19.119-1.228-3.005-3.9265-9.2436-3.7185-17.7707z"/><path d="M161.7196 56.2171h.5504v126.019h-.5504z"/></g></g><path d="M7.943 18.075h109.668c4.096 0 7.647 3.414 7.647 7.648V58.09c0 4.234-3.551 7.649-7.647 7.649H95.077c-5.054 0-7.239 2.867-7.239 6.145v105.98c0 3.551-2.868 6.282-6.282 6.282H44.272c-3.415 0-6.146-2.731-6.146-6.282V70.929c0-3.278-3.005-5.189-5.326-5.189H7.943c-4.234 0-7.648-3.415-7.648-7.649V25.723c-.001-4.234 3.413-7.648 7.648-7.648zM289.3069 60.959h9.696c3.551 0 6.419 2.868 6.419 6.282v34.69c0 4.507.273 6.282-5.19 6.282-10.789 0-15.705 5.736-15.705 12.018v58.589c0 2.732-2.595 5.053-5.736 5.053h-34.827c-3.141 0-5.736-2.321-5.736-5.053v-66.784c-.0378-1.1744-.0148-2.9081.137-3.823 1.912-24.72 21.3075-44.4979 45.888-46.981.824-.0832 3.7394-.273 5.054-.273z" style="fill:#7d4698"/></svg>